<svg width="814" height="945" viewBox="0 0 814 945" fill="none" xmlns="http://www.w3.org/2000/svg">
<path d="M6.75934 945L10.9921 905.625C15.3759 866.25 23.8415 787.5 66.0176 708.75C108.042 630 183.627 551.25 170.022 472.5C156.417 393.75 51.5853 340.999 21.5739 236.25C3.52718 173.262 3.49973 116.5 3.49973 116.5L3.00091 86L2.5 47.5L1.5 32L0.312878 0H814.001V39.375C814.001 78.75 814.001 157.5 814.001 236.25C814.001 315 814.001 393.75 814.001 472.5C814.001 551.25 814.001 630 814.001 708.75C814.001 787.5 814.001 866.25 814.001 905.625V945H6.75934Z" fill="#7FB8B6"/>
</svg>
