<svg width="651" height="945" viewBox="0 0 651 945" fill="none" xmlns="http://www.w3.org/2000/svg">
<path d="M5.07136 945L8.45562 905.625C11.9608 866.25 18.7293 787.5 52.4512 708.75C86.0521 630 146.486 551.25 135.607 472.5C124.729 393.75 42.5401 315 16.9163 236.25C2.99992 154 -3.50008 132.5 2.99992 69.5L5.92848 0H650.5V39.375C650.5 78.75 650.5 157.5 650.5 236.25C650.5 315 650.5 393.75 650.5 472.5C650.5 551.25 650.5 630 650.5 708.75C650.5 787.5 650.5 866.25 650.5 905.625V945H5.07136Z" fill="#7FB8B6"/>
</svg>
