<svg width="812" height="945" viewBox="0 0 812 945" fill="none" xmlns="http://www.w3.org/2000/svg">
<path d="M4.75838 945L8.9911 905.625C13.375 866.25 21.8405 787.5 64.0166 708.75C106.042 630 181.626 551.25 168.021 472.5C154.416 393.75 49.5843 340.999 19.5729 236.25C1.52621 173.262 -1.00008 147 1.00011 69.5C3.00029 -8 0.673581 84 1.50011 59.5C2.32663 35 1.50013 51.5 1.50013 51.5L2.00019 32.5L3.00003 0H812V39.375C812 78.75 812 157.5 812 236.25C812 315 812 393.75 812 472.5C812 551.25 812 630 812 708.75C812 787.5 812 866.25 812 905.625V945H4.75838Z" fill="#7FB8B6"/>
</svg>
